# xmcd
#
# Track frame offsets:
#	150
#	19530
#	36390
#	54652
#	70985
#	87300
#	105050
#	121960
#	138237
#	153650
#	176080
#	192617
#	218370
#	232497
#
# Disc length: 3357 seconds
#
# Revision: 0
# Processed by: cddbd v1.4PL0 Copyright (c) Steve Scherf et al.
# Submitted via: AudioConverter v4.05 Copyright (c) Dennis Rebentrost
#
DISCID=c40d1b0e
DTITLE=v - v
DYEAR=7
DGENRE=v
TTITLE0=n
TTITLE1=n
TTITLE2=n
TTITLE3=n
TTITLE4=n
TTITLE5=n
TTITLE6=n
TTITLE7=n
TTITLE8=n
TTITLE9=n
TTITLE10=n
TTITLE11=n
TTITLE12=m
TTITLE13=n
EXTD=
EXTT0=
EXTT1=
EXTT2=
EXTT3=
EXTT4=
EXTT5=
EXTT6=
EXTT7=
EXTT8=
EXTT9=
EXTT10=
EXTT11=
EXTT12=
EXTT13=
PLAYORDER=
